<?xml version="1.0" encoding="utf-8" standalone="no"?>
<!DOCTYPE svg PUBLIC "-//W3C//DTD SVG 1.1//EN"
  "http://www.w3.org/Graphics/SVG/1.1/DTD/svg11.dtd">
<svg xmlns:xlink="http://www.w3.org/1999/xlink" width="771.713443pt" height="562.124474pt" viewBox="0 0 771.713443 562.124474" xmlns="http://www.w3.org/2000/svg" version="1.1">
 <metadata>
  <rdf:RDF xmlns:dc="http://purl.org/dc/elements/1.1/" xmlns:cc="http://creativecommons.org/ns#" xmlns:rdf="http://www.w3.org/1999/02/22-rdf-syntax-ns#">
   <cc:Work>
    <dc:type rdf:resource="http://purl.org/dc/dcmitype/StillImage"/>
    <dc:date>2024-01-03T15:32:51.255201</dc:date>
    <dc:format>image/svg+xml</dc:format>
    <dc:creator>
     <cc:Agent>
      <dc:title>Matplotlib v3.7.1, https://matplotlib.org/</dc:title>
     </cc:Agent>
    </dc:creator>
   </cc:Work>
  </rdf:RDF>
 </metadata>
 <defs>
  <style type="text/css">*{stroke-linejoin: round; stroke-linecap: butt}</style>
 </defs>
 <g id="figure_1">
  <g id="patch_1">
   <path d="M 0 562.124474 
L 771.713443 562.124474 
L 771.713443 0 
L 0 0 
z
" style="fill: #ffffff"/>
  </g>
  <g id="axes_1">
   <g id="patch_2">
    <path d="M 293.875108 506.16 
L 628.675108 506.16 
L 628.675108 7.2 
L 293.875108 7.2 
z
" style="fill: #ffffff"/>
   </g>
   <g id="matplotlib.axis_1">
    <g id="xtick_1">
     <g id="line2d_1">
      <defs>
       <path id="m548f75531c" d="M 0 0 
L 0 3.5 
" style="stroke: #000000; stroke-width: 0.8"/>
      </defs>
      <g>
       <use xlink:href="#m548f75531c" x="320.141983" y="506.16" style="stroke: #000000; stroke-width: 0.8"/>
      </g>
     </g>
     <g id="text_1">
      <!-- −2400 -->
      <g transform="translate(288.745406 527.26388) scale(0.185616 -0.185616)">
       <defs>
        <path id="DejaVuSans-2212" d="M 678 2272 
L 4684 2272 
L 4684 1741 
L 678 1741 
L 678 2272 
z
" transform="scale(0.015625)"/>
        <path id="DejaVuSans-32" d="M 1228 531 
L 3431 531 
L 3431 0 
L 469 0 
L 469 531 
Q 828 903 1448 1529 
Q 2069 2156 2228 2338 
Q 2531 2678 2651 2914 
Q 2772 3150 2772 3378 
Q 2772 3750 2511 3984 
Q 2250 4219 1831 4219 
Q 1534 4219 1204 4116 
Q 875 4013 500 3803 
L 500 4441 
Q 881 4594 1212 4672 
Q 1544 4750 1819 4750 
Q 2544 4750 2975 4387 
Q 3406 4025 3406 3419 
Q 3406 3131 3298 2873 
Q 3191 2616 2906 2266 
Q 2828 2175 2409 1742 
Q 1991 1309 1228 531 
z
" transform="scale(0.015625)"/>
        <path id="DejaVuSans-34" d="M 2419 4116 
L 825 1625 
L 2419 1625 
L 2419 4116 
z
M 2253 4666 
L 3047 4666 
L 3047 1625 
L 3713 1625 
L 3713 1100 
L 3047 1100 
L 3047 0 
L 2419 0 
L 2419 1100 
L 313 1100 
L 313 1709 
L 2253 4666 
z
" transform="scale(0.015625)"/>
        <path id="DejaVuSans-30" d="M 2034 4250 
Q 1547 4250 1301 3770 
Q 1056 3291 1056 2328 
Q 1056 1369 1301 889 
Q 1547 409 2034 409 
Q 2525 409 2770 889 
Q 3016 1369 3016 2328 
Q 3016 3291 2770 3770 
Q 2525 4250 2034 4250 
z
M 2034 4750 
Q 2819 4750 3233 4129 
Q 3647 3509 3647 2328 
Q 3647 1150 3233 529 
Q 2819 -91 2034 -91 
Q 1250 -91 836 529 
Q 422 1150 422 2328 
Q 422 3509 836 4129 
Q 1250 4750 2034 4750 
z
" transform="scale(0.015625)"/>
       </defs>
       <use xlink:href="#DejaVuSans-2212"/>
       <use xlink:href="#DejaVuSans-32" x="83.789062"/>
       <use xlink:href="#DejaVuSans-34" x="147.412109"/>
       <use xlink:href="#DejaVuSans-30" x="211.035156"/>
       <use xlink:href="#DejaVuSans-30" x="274.658203"/>
      </g>
     </g>
    </g>
    <g id="xtick_2">
     <g id="line2d_2">
      <g>
       <use xlink:href="#m548f75531c" x="429.527555" y="506.16" style="stroke: #000000; stroke-width: 0.8"/>
      </g>
     </g>
     <g id="text_2">
      <!-- −2200 -->
      <g transform="translate(398.130978 527.26388) scale(0.185616 -0.185616)">
       <use xlink:href="#DejaVuSans-2212"/>
       <use xlink:href="#DejaVuSans-32" x="83.789062"/>
       <use xlink:href="#DejaVuSans-32" x="147.412109"/>
       <use xlink:href="#DejaVuSans-30" x="211.035156"/>
       <use xlink:href="#DejaVuSans-30" x="274.658203"/>
      </g>
     </g>
    </g>
    <g id="xtick_3">
     <g id="line2d_3">
      <g>
       <use xlink:href="#m548f75531c" x="538.913127" y="506.16" style="stroke: #000000; stroke-width: 0.8"/>
      </g>
     </g>
     <g id="text_3">
      <!-- −2000 -->
      <g transform="translate(507.51655 527.26388) scale(0.185616 -0.185616)">
       <use xlink:href="#DejaVuSans-2212"/>
       <use xlink:href="#DejaVuSans-32" x="83.789062"/>
       <use xlink:href="#DejaVuSans-30" x="147.412109"/>
       <use xlink:href="#DejaVuSans-30" x="211.035156"/>
       <use xlink:href="#DejaVuSans-30" x="274.658203"/>
      </g>
     </g>
    </g>
    <g id="text_4">
     <!-- elpd_loo (log) -->
     <g transform="translate(393.786979 550.235403) scale(0.198874 -0.198874)">
      <defs>
       <path id="DejaVuSans-65" d="M 3597 1894 
L 3597 1613 
L 953 1613 
Q 991 1019 1311 708 
Q 1631 397 2203 397 
Q 2534 397 2845 478 
Q 3156 559 3463 722 
L 3463 178 
Q 3153 47 2828 -22 
Q 2503 -91 2169 -91 
Q 1331 -91 842 396 
Q 353 884 353 1716 
Q 353 2575 817 3079 
Q 1281 3584 2069 3584 
Q 2775 3584 3186 3129 
Q 3597 2675 3597 1894 
z
M 3022 2063 
Q 3016 2534 2758 2815 
Q 2500 3097 2075 3097 
Q 1594 3097 1305 2825 
Q 1016 2553 972 2059 
L 3022 2063 
z
" transform="scale(0.015625)"/>
       <path id="DejaVuSans-6c" d="M 603 4863 
L 1178 4863 
L 1178 0 
L 603 0 
L 603 4863 
z
" transform="scale(0.015625)"/>
       <path id="DejaVuSans-70" d="M 1159 525 
L 1159 -1331 
L 581 -1331 
L 581 3500 
L 1159 3500 
L 1159 2969 
Q 1341 3281 1617 3432 
Q 1894 3584 2278 3584 
Q 2916 3584 3314 3078 
Q 3713 2572 3713 1747 
Q 3713 922 3314 415 
Q 2916 -91 2278 -91 
Q 1894 -91 1617 61 
Q 1341 213 1159 525 
z
M 3116 1747 
Q 3116 2381 2855 2742 
Q 2594 3103 2138 3103 
Q 1681 3103 1420 2742 
Q 1159 2381 1159 1747 
Q 1159 1113 1420 752 
Q 1681 391 2138 391 
Q 2594 391 2855 752 
Q 3116 1113 3116 1747 
z
" transform="scale(0.015625)"/>
       <path id="DejaVuSans-64" d="M 2906 2969 
L 2906 4863 
L 3481 4863 
L 3481 0 
L 2906 0 
L 2906 525 
Q 2725 213 2448 61 
Q 2172 -91 1784 -91 
Q 1150 -91 751 415 
Q 353 922 353 1747 
Q 353 2572 751 3078 
Q 1150 3584 1784 3584 
Q 2172 3584 2448 3432 
Q 2725 3281 2906 2969 
z
M 947 1747 
Q 947 1113 1208 752 
Q 1469 391 1925 391 
Q 2381 391 2643 752 
Q 2906 1113 2906 1747 
Q 2906 2381 2643 2742 
Q 2381 3103 1925 3103 
Q 1469 3103 1208 2742 
Q 947 2381 947 1747 
z
" transform="scale(0.015625)"/>
       <path id="DejaVuSans-5f" d="M 3263 -1063 
L 3263 -1509 
L -63 -1509 
L -63 -1063 
L 3263 -1063 
z
" transform="scale(0.015625)"/>
       <path id="DejaVuSans-6f" d="M 1959 3097 
Q 1497 3097 1228 2736 
Q 959 2375 959 1747 
Q 959 1119 1226 758 
Q 1494 397 1959 397 
Q 2419 397 2687 759 
Q 2956 1122 2956 1747 
Q 2956 2369 2687 2733 
Q 2419 3097 1959 3097 
z
M 1959 3584 
Q 2709 3584 3137 3096 
Q 3566 2609 3566 1747 
Q 3566 888 3137 398 
Q 2709 -91 1959 -91 
Q 1206 -91 779 398 
Q 353 888 353 1747 
Q 353 2609 779 3096 
Q 1206 3584 1959 3584 
z
" transform="scale(0.015625)"/>
       <path id="DejaVuSans-20" transform="scale(0.015625)"/>
       <path id="DejaVuSans-28" d="M 1984 4856 
Q 1566 4138 1362 3434 
Q 1159 2731 1159 2009 
Q 1159 1288 1364 580 
Q 1569 -128 1984 -844 
L 1484 -844 
Q 1016 -109 783 600 
Q 550 1309 550 2009 
Q 550 2706 781 3412 
Q 1013 4119 1484 4856 
L 1984 4856 
z
" transform="scale(0.015625)"/>
       <path id="DejaVuSans-67" d="M 2906 1791 
Q 2906 2416 2648 2759 
Q 2391 3103 1925 3103 
Q 1463 3103 1205 2759 
Q 947 2416 947 1791 
Q 947 1169 1205 825 
Q 1463 481 1925 481 
Q 2391 481 2648 825 
Q 2906 1169 2906 1791 
z
M 3481 434 
Q 3481 -459 3084 -895 
Q 2688 -1331 1869 -1331 
Q 1566 -1331 1297 -1286 
Q 1028 -1241 775 -1147 
L 775 -588 
Q 1028 -725 1275 -790 
Q 1522 -856 1778 -856 
Q 2344 -856 2625 -561 
Q 2906 -266 2906 331 
L 2906 616 
Q 2728 306 2450 153 
Q 2172 0 1784 0 
Q 1141 0 747 490 
Q 353 981 353 1791 
Q 353 2603 747 3093 
Q 1141 3584 1784 3584 
Q 2172 3584 2450 3431 
Q 2728 3278 2906 2969 
L 2906 3500 
L 3481 3500 
L 3481 434 
z
" transform="scale(0.015625)"/>
       <path id="DejaVuSans-29" d="M 513 4856 
L 1013 4856 
Q 1481 4119 1714 3412 
Q 1947 2706 1947 2009 
Q 1947 1309 1714 600 
Q 1481 -109 1013 -844 
L 513 -844 
Q 928 -128 1133 580 
Q 1338 1288 1338 2009 
Q 1338 2731 1133 3434 
Q 928 4138 513 4856 
z
" transform="scale(0.015625)"/>
      </defs>
      <use xlink:href="#DejaVuSans-65"/>
      <use xlink:href="#DejaVuSans-6c" x="61.523438"/>
      <use xlink:href="#DejaVuSans-70" x="89.306641"/>
      <use xlink:href="#DejaVuSans-64" x="152.783203"/>
      <use xlink:href="#DejaVuSans-5f" x="216.259766"/>
      <use xlink:href="#DejaVuSans-6c" x="266.259766"/>
      <use xlink:href="#DejaVuSans-6f" x="294.042969"/>
      <use xlink:href="#DejaVuSans-6f" x="355.224609"/>
      <use xlink:href="#DejaVuSans-20" x="416.40625"/>
      <use xlink:href="#DejaVuSans-28" x="448.193359"/>
      <use xlink:href="#DejaVuSans-6c" x="487.207031"/>
      <use xlink:href="#DejaVuSans-6f" x="514.990234"/>
      <use xlink:href="#DejaVuSans-67" x="576.171875"/>
      <use xlink:href="#DejaVuSans-29" x="639.648438"/>
     </g>
    </g>
   </g>
   <g id="matplotlib.axis_2">
    <g id="ytick_1">
     <g id="line2d_4">
      <defs>
       <path id="mbd93de1f75" d="M 0 0 
L -3.5 0 
" style="stroke: #000000; stroke-width: 0.8"/>
      </defs>
      <g>
       <use xlink:href="#mbd93de1f75" x="293.875108" y="34.92" style="stroke: #000000; stroke-width: 0.8"/>
      </g>
     </g>
     <g id="text_5">
      <!-- Adjusted_Complete_Pooling -->
      <g transform="translate(30.534261 41.97194) scale(0.185616 -0.185616)">
       <defs>
        <path id="DejaVuSans-41" d="M 2188 4044 
L 1331 1722 
L 3047 1722 
L 2188 4044 
z
M 1831 4666 
L 2547 4666 
L 4325 0 
L 3669 0 
L 3244 1197 
L 1141 1197 
L 716 0 
L 50 0 
L 1831 4666 
z
" transform="scale(0.015625)"/>
        <path id="DejaVuSans-6a" d="M 603 3500 
L 1178 3500 
L 1178 -63 
Q 1178 -731 923 -1031 
Q 669 -1331 103 -1331 
L -116 -1331 
L -116 -844 
L 38 -844 
Q 366 -844 484 -692 
Q 603 -541 603 -63 
L 603 3500 
z
M 603 4863 
L 1178 4863 
L 1178 4134 
L 603 4134 
L 603 4863 
z
" transform="scale(0.015625)"/>
        <path id="DejaVuSans-75" d="M 544 1381 
L 544 3500 
L 1119 3500 
L 1119 1403 
Q 1119 906 1312 657 
Q 1506 409 1894 409 
Q 2359 409 2629 706 
Q 2900 1003 2900 1516 
L 2900 3500 
L 3475 3500 
L 3475 0 
L 2900 0 
L 2900 538 
Q 2691 219 2414 64 
Q 2138 -91 1772 -91 
Q 1169 -91 856 284 
Q 544 659 544 1381 
z
M 1991 3584 
L 1991 3584 
z
" transform="scale(0.015625)"/>
        <path id="DejaVuSans-73" d="M 2834 3397 
L 2834 2853 
Q 2591 2978 2328 3040 
Q 2066 3103 1784 3103 
Q 1356 3103 1142 2972 
Q 928 2841 928 2578 
Q 928 2378 1081 2264 
Q 1234 2150 1697 2047 
L 1894 2003 
Q 2506 1872 2764 1633 
Q 3022 1394 3022 966 
Q 3022 478 2636 193 
Q 2250 -91 1575 -91 
Q 1294 -91 989 -36 
Q 684 19 347 128 
L 347 722 
Q 666 556 975 473 
Q 1284 391 1588 391 
Q 1994 391 2212 530 
Q 2431 669 2431 922 
Q 2431 1156 2273 1281 
Q 2116 1406 1581 1522 
L 1381 1569 
Q 847 1681 609 1914 
Q 372 2147 372 2553 
Q 372 3047 722 3315 
Q 1072 3584 1716 3584 
Q 2034 3584 2315 3537 
Q 2597 3491 2834 3397 
z
" transform="scale(0.015625)"/>
        <path id="DejaVuSans-74" d="M 1172 4494 
L 1172 3500 
L 2356 3500 
L 2356 3053 
L 1172 3053 
L 1172 1153 
Q 1172 725 1289 603 
Q 1406 481 1766 481 
L 2356 481 
L 2356 0 
L 1766 0 
Q 1100 0 847 248 
Q 594 497 594 1153 
L 594 3053 
L 172 3053 
L 172 3500 
L 594 3500 
L 594 4494 
L 1172 4494 
z
" transform="scale(0.015625)"/>
        <path id="DejaVuSans-43" d="M 4122 4306 
L 4122 3641 
Q 3803 3938 3442 4084 
Q 3081 4231 2675 4231 
Q 1875 4231 1450 3742 
Q 1025 3253 1025 2328 
Q 1025 1406 1450 917 
Q 1875 428 2675 428 
Q 3081 428 3442 575 
Q 3803 722 4122 1019 
L 4122 359 
Q 3791 134 3420 21 
Q 3050 -91 2638 -91 
Q 1578 -91 968 557 
Q 359 1206 359 2328 
Q 359 3453 968 4101 
Q 1578 4750 2638 4750 
Q 3056 4750 3426 4639 
Q 3797 4528 4122 4306 
z
" transform="scale(0.015625)"/>
        <path id="DejaVuSans-6d" d="M 3328 2828 
Q 3544 3216 3844 3400 
Q 4144 3584 4550 3584 
Q 5097 3584 5394 3201 
Q 5691 2819 5691 2113 
L 5691 0 
L 5113 0 
L 5113 2094 
Q 5113 2597 4934 2840 
Q 4756 3084 4391 3084 
Q 3944 3084 3684 2787 
Q 3425 2491 3425 1978 
L 3425 0 
L 2847 0 
L 2847 2094 
Q 2847 2600 2669 2842 
Q 2491 3084 2119 3084 
Q 1678 3084 1418 2786 
Q 1159 2488 1159 1978 
L 1159 0 
L 581 0 
L 581 3500 
L 1159 3500 
L 1159 2956 
Q 1356 3278 1631 3431 
Q 1906 3584 2284 3584 
Q 2666 3584 2933 3390 
Q 3200 3197 3328 2828 
z
" transform="scale(0.015625)"/>
        <path id="DejaVuSans-50" d="M 1259 4147 
L 1259 2394 
L 2053 2394 
Q 2494 2394 2734 2622 
Q 2975 2850 2975 3272 
Q 2975 3691 2734 3919 
Q 2494 4147 2053 4147 
L 1259 4147 
z
M 628 4666 
L 2053 4666 
Q 2838 4666 3239 4311 
Q 3641 3956 3641 3272 
Q 3641 2581 3239 2228 
Q 2838 1875 2053 1875 
L 1259 1875 
L 1259 0 
L 628 0 
L 628 4666 
z
" transform="scale(0.015625)"/>
        <path id="DejaVuSans-69" d="M 603 3500 
L 1178 3500 
L 1178 0 
L 603 0 
L 603 3500 
z
M 603 4863 
L 1178 4863 
L 1178 4134 
L 603 4134 
L 603 4863 
z
" transform="scale(0.015625)"/>
        <path id="DejaVuSans-6e" d="M 3513 2113 
L 3513 0 
L 2938 0 
L 2938 2094 
Q 2938 2591 2744 2837 
Q 2550 3084 2163 3084 
Q 1697 3084 1428 2787 
Q 1159 2491 1159 1978 
L 1159 0 
L 581 0 
L 581 3500 
L 1159 3500 
L 1159 2956 
Q 1366 3272 1645 3428 
Q 1925 3584 2291 3584 
Q 2894 3584 3203 3211 
Q 3513 2838 3513 2113 
z
" transform="scale(0.015625)"/>
       </defs>
       <use xlink:href="#DejaVuSans-41"/>
       <use xlink:href="#DejaVuSans-64" x="66.658203"/>
       <use xlink:href="#DejaVuSans-6a" x="130.134766"/>
       <use xlink:href="#DejaVuSans-75" x="157.917969"/>
       <use xlink:href="#DejaVuSans-73" x="221.296875"/>
       <use xlink:href="#DejaVuSans-74" x="273.396484"/>
       <use xlink:href="#DejaVuSans-65" x="312.605469"/>
       <use xlink:href="#DejaVuSans-64" x="374.128906"/>
       <use xlink:href="#DejaVuSans-5f" x="437.605469"/>
       <use xlink:href="#DejaVuSans-43" x="487.605469"/>
       <use xlink:href="#DejaVuSans-6f" x="557.429688"/>
       <use xlink:href="#DejaVuSans-6d" x="618.611328"/>
       <use xlink:href="#DejaVuSans-70" x="716.023438"/>
       <use xlink:href="#DejaVuSans-6c" x="779.5"/>
       <use xlink:href="#DejaVuSans-65" x="807.283203"/>
       <use xlink:href="#DejaVuSans-74" x="868.806641"/>
       <use xlink:href="#DejaVuSans-65" x="908.015625"/>
       <use xlink:href="#DejaVuSans-5f" x="969.539062"/>
       <use xlink:href="#DejaVuSans-50" x="1019.539062"/>
       <use xlink:href="#DejaVuSans-6f" x="1076.216797"/>
       <use xlink:href="#DejaVuSans-6f" x="1137.398438"/>
       <use xlink:href="#DejaVuSans-6c" x="1198.580078"/>
       <use xlink:href="#DejaVuSans-69" x="1226.363281"/>
       <use xlink:href="#DejaVuSans-6e" x="1254.146484"/>
       <use xlink:href="#DejaVuSans-67" x="1317.525391"/>
      </g>
     </g>
    </g>
    <g id="ytick_2">
     <g id="line2d_5">
      <g>
       <use xlink:href="#mbd93de1f75" x="293.875108" y="90.36" style="stroke: #000000; stroke-width: 0.8"/>
      </g>
     </g>
     <g id="text_6">
      <!-- Adjusted_Multilevel -->
      <g transform="translate(106.857046 97.41194) scale(0.185616 -0.185616)">
       <defs>
        <path id="DejaVuSans-4d" d="M 628 4666 
L 1569 4666 
L 2759 1491 
L 3956 4666 
L 4897 4666 
L 4897 0 
L 4281 0 
L 4281 4097 
L 3078 897 
L 2444 897 
L 1241 4097 
L 1241 0 
L 628 0 
L 628 4666 
z
" transform="scale(0.015625)"/>
        <path id="DejaVuSans-76" d="M 191 3500 
L 800 3500 
L 1894 563 
L 2988 3500 
L 3597 3500 
L 2284 0 
L 1503 0 
L 191 3500 
z
" transform="scale(0.015625)"/>
       </defs>
       <use xlink:href="#DejaVuSans-41"/>
       <use xlink:href="#DejaVuSans-64" x="66.658203"/>
       <use xlink:href="#DejaVuSans-6a" x="130.134766"/>
       <use xlink:href="#DejaVuSans-75" x="157.917969"/>
       <use xlink:href="#DejaVuSans-73" x="221.296875"/>
       <use xlink:href="#DejaVuSans-74" x="273.396484"/>
       <use xlink:href="#DejaVuSans-65" x="312.605469"/>
       <use xlink:href="#DejaVuSans-64" x="374.128906"/>
       <use xlink:href="#DejaVuSans-5f" x="437.605469"/>
       <use xlink:href="#DejaVuSans-4d" x="487.605469"/>
       <use xlink:href="#DejaVuSans-75" x="573.884766"/>
       <use xlink:href="#DejaVuSans-6c" x="637.263672"/>
       <use xlink:href="#DejaVuSans-74" x="665.046875"/>
       <use xlink:href="#DejaVuSans-69" x="704.255859"/>
       <use xlink:href="#DejaVuSans-6c" x="732.039062"/>
       <use xlink:href="#DejaVuSans-65" x="759.822266"/>
       <use xlink:href="#DejaVuSans-76" x="821.345703"/>
       <use xlink:href="#DejaVuSans-65" x="880.525391"/>
       <use xlink:href="#DejaVuSans-6c" x="942.048828"/>
      </g>
     </g>
    </g>
    <g id="ytick_3">
     <g id="line2d_6">
      <g>
       <use xlink:href="#mbd93de1f75" x="293.875108" y="145.8" style="stroke: #000000; stroke-width: 0.8"/>
      </g>
     </g>
     <g id="text_7">
      <!-- Adjusted_No_Pooling -->
      <g transform="translate(94.748533 152.85194) scale(0.185616 -0.185616)">
       <defs>
        <path id="DejaVuSans-4e" d="M 628 4666 
L 1478 4666 
L 3547 763 
L 3547 4666 
L 4159 4666 
L 4159 0 
L 3309 0 
L 1241 3903 
L 1241 0 
L 628 0 
L 628 4666 
z
" transform="scale(0.015625)"/>
       </defs>
       <use xlink:href="#DejaVuSans-41"/>
       <use xlink:href="#DejaVuSans-64" x="66.658203"/>
       <use xlink:href="#DejaVuSans-6a" x="130.134766"/>
       <use xlink:href="#DejaVuSans-75" x="157.917969"/>
       <use xlink:href="#DejaVuSans-73" x="221.296875"/>
       <use xlink:href="#DejaVuSans-74" x="273.396484"/>
       <use xlink:href="#DejaVuSans-65" x="312.605469"/>
       <use xlink:href="#DejaVuSans-64" x="374.128906"/>
       <use xlink:href="#DejaVuSans-5f" x="437.605469"/>
       <use xlink:href="#DejaVuSans-4e" x="487.605469"/>
       <use xlink:href="#DejaVuSans-6f" x="562.410156"/>
       <use xlink:href="#DejaVuSans-5f" x="623.591797"/>
       <use xlink:href="#DejaVuSans-50" x="673.591797"/>
       <use xlink:href="#DejaVuSans-6f" x="730.269531"/>
       <use xlink:href="#DejaVuSans-6f" x="791.451172"/>
       <use xlink:href="#DejaVuSans-6c" x="852.632812"/>
       <use xlink:href="#DejaVuSans-69" x="880.416016"/>
       <use xlink:href="#DejaVuSans-6e" x="908.199219"/>
       <use xlink:href="#DejaVuSans-67" x="971.578125"/>
      </g>
     </g>
    </g>
    <g id="ytick_4">
     <g id="line2d_7">
      <g>
       <use xlink:href="#mbd93de1f75" x="293.875108" y="201.24" style="stroke: #000000; stroke-width: 0.8"/>
      </g>
     </g>
     <g id="text_8">
      <!-- Ethnicity_Complete_Pooling -->
      <g transform="translate(30.447253 208.29194) scale(0.185616 -0.185616)">
       <defs>
        <path id="DejaVuSans-45" d="M 628 4666 
L 3578 4666 
L 3578 4134 
L 1259 4134 
L 1259 2753 
L 3481 2753 
L 3481 2222 
L 1259 2222 
L 1259 531 
L 3634 531 
L 3634 0 
L 628 0 
L 628 4666 
z
" transform="scale(0.015625)"/>
        <path id="DejaVuSans-68" d="M 3513 2113 
L 3513 0 
L 2938 0 
L 2938 2094 
Q 2938 2591 2744 2837 
Q 2550 3084 2163 3084 
Q 1697 3084 1428 2787 
Q 1159 2491 1159 1978 
L 1159 0 
L 581 0 
L 581 4863 
L 1159 4863 
L 1159 2956 
Q 1366 3272 1645 3428 
Q 1925 3584 2291 3584 
Q 2894 3584 3203 3211 
Q 3513 2838 3513 2113 
z
" transform="scale(0.015625)"/>
        <path id="DejaVuSans-63" d="M 3122 3366 
L 3122 2828 
Q 2878 2963 2633 3030 
Q 2388 3097 2138 3097 
Q 1578 3097 1268 2742 
Q 959 2388 959 1747 
Q 959 1106 1268 751 
Q 1578 397 2138 397 
Q 2388 397 2633 464 
Q 2878 531 3122 666 
L 3122 134 
Q 2881 22 2623 -34 
Q 2366 -91 2075 -91 
Q 1284 -91 818 406 
Q 353 903 353 1747 
Q 353 2603 823 3093 
Q 1294 3584 2113 3584 
Q 2378 3584 2631 3529 
Q 2884 3475 3122 3366 
z
" transform="scale(0.015625)"/>
        <path id="DejaVuSans-79" d="M 2059 -325 
Q 1816 -950 1584 -1140 
Q 1353 -1331 966 -1331 
L 506 -1331 
L 506 -850 
L 844 -850 
Q 1081 -850 1212 -737 
Q 1344 -625 1503 -206 
L 1606 56 
L 191 3500 
L 800 3500 
L 1894 763 
L 2988 3500 
L 3597 3500 
L 2059 -325 
z
" transform="scale(0.015625)"/>
       </defs>
       <use xlink:href="#DejaVuSans-45"/>
       <use xlink:href="#DejaVuSans-74" x="63.183594"/>
       <use xlink:href="#DejaVuSans-68" x="102.392578"/>
       <use xlink:href="#DejaVuSans-6e" x="165.771484"/>
       <use xlink:href="#DejaVuSans-69" x="229.150391"/>
       <use xlink:href="#DejaVuSans-63" x="256.933594"/>
       <use xlink:href="#DejaVuSans-69" x="311.914062"/>
       <use xlink:href="#DejaVuSans-74" x="339.697266"/>
       <use xlink:href="#DejaVuSans-79" x="378.90625"/>
       <use xlink:href="#DejaVuSans-5f" x="438.085938"/>
       <use xlink:href="#DejaVuSans-43" x="488.085938"/>
       <use xlink:href="#DejaVuSans-6f" x="557.910156"/>
       <use xlink:href="#DejaVuSans-6d" x="619.091797"/>
       <use xlink:href="#DejaVuSans-70" x="716.503906"/>
       <use xlink:href="#DejaVuSans-6c" x="779.980469"/>
       <use xlink:href="#DejaVuSans-65" x="807.763672"/>
       <use xlink:href="#DejaVuSans-74" x="869.287109"/>
       <use xlink:href="#DejaVuSans-65" x="908.496094"/>
       <use xlink:href="#DejaVuSans-5f" x="970.019531"/>
       <use xlink:href="#DejaVuSans-50" x="1020.019531"/>
       <use xlink:href="#DejaVuSans-6f" x="1076.697266"/>
       <use xlink:href="#DejaVuSans-6f" x="1137.878906"/>
       <use xlink:href="#DejaVuSans-6c" x="1199.060547"/>
       <use xlink:href="#DejaVuSans-69" x="1226.84375"/>
       <use xlink:href="#DejaVuSans-6e" x="1254.626953"/>
       <use xlink:href="#DejaVuSans-67" x="1318.005859"/>
      </g>
     </g>
    </g>
    <g id="ytick_5">
     <g id="line2d_8">
      <g>
       <use xlink:href="#mbd93de1f75" x="293.875108" y="256.68" style="stroke: #000000; stroke-width: 0.8"/>
      </g>
     </g>
     <g id="text_9">
      <!-- Ethnicity_Multilevel -->
      <g transform="translate(106.770039 263.73194) scale(0.185616 -0.185616)">
       <use xlink:href="#DejaVuSans-45"/>
       <use xlink:href="#DejaVuSans-74" x="63.183594"/>
       <use xlink:href="#DejaVuSans-68" x="102.392578"/>
       <use xlink:href="#DejaVuSans-6e" x="165.771484"/>
       <use xlink:href="#DejaVuSans-69" x="229.150391"/>
       <use xlink:href="#DejaVuSans-63" x="256.933594"/>
       <use xlink:href="#DejaVuSans-69" x="311.914062"/>
       <use xlink:href="#DejaVuSans-74" x="339.697266"/>
       <use xlink:href="#DejaVuSans-79" x="378.90625"/>
       <use xlink:href="#DejaVuSans-5f" x="438.085938"/>
       <use xlink:href="#DejaVuSans-4d" x="488.085938"/>
       <use xlink:href="#DejaVuSans-75" x="574.365234"/>
       <use xlink:href="#DejaVuSans-6c" x="637.744141"/>
       <use xlink:href="#DejaVuSans-74" x="665.527344"/>
       <use xlink:href="#DejaVuSans-69" x="704.736328"/>
       <use xlink:href="#DejaVuSans-6c" x="732.519531"/>
       <use xlink:href="#DejaVuSans-65" x="760.302734"/>
       <use xlink:href="#DejaVuSans-76" x="821.826172"/>
       <use xlink:href="#DejaVuSans-65" x="881.005859"/>
       <use xlink:href="#DejaVuSans-6c" x="942.529297"/>
      </g>
     </g>
    </g>
    <g id="ytick_6">
     <g id="line2d_9">
      <g>
       <use xlink:href="#mbd93de1f75" x="293.875108" y="312.12" style="stroke: #000000; stroke-width: 0.8"/>
      </g>
     </g>
     <g id="text_10">
      <!-- Ethnicity_No_Pooling -->
      <g transform="translate(94.661526 319.17194) scale(0.185616 -0.185616)">
       <use xlink:href="#DejaVuSans-45"/>
       <use xlink:href="#DejaVuSans-74" x="63.183594"/>
       <use xlink:href="#DejaVuSans-68" x="102.392578"/>
       <use xlink:href="#DejaVuSans-6e" x="165.771484"/>
       <use xlink:href="#DejaVuSans-69" x="229.150391"/>
       <use xlink:href="#DejaVuSans-63" x="256.933594"/>
       <use xlink:href="#DejaVuSans-69" x="311.914062"/>
       <use xlink:href="#DejaVuSans-74" x="339.697266"/>
       <use xlink:href="#DejaVuSans-79" x="378.90625"/>
       <use xlink:href="#DejaVuSans-5f" x="438.085938"/>
       <use xlink:href="#DejaVuSans-4e" x="488.085938"/>
       <use xlink:href="#DejaVuSans-6f" x="562.890625"/>
       <use xlink:href="#DejaVuSans-5f" x="624.072266"/>
       <use xlink:href="#DejaVuSans-50" x="674.072266"/>
       <use xlink:href="#DejaVuSans-6f" x="730.75"/>
       <use xlink:href="#DejaVuSans-6f" x="791.931641"/>
       <use xlink:href="#DejaVuSans-6c" x="853.113281"/>
       <use xlink:href="#DejaVuSans-69" x="880.896484"/>
       <use xlink:href="#DejaVuSans-6e" x="908.679688"/>
       <use xlink:href="#DejaVuSans-67" x="972.058594"/>
      </g>
     </g>
    </g>
    <g id="ytick_7">
     <g id="line2d_10">
      <g>
       <use xlink:href="#mbd93de1f75" x="293.875108" y="367.56" style="stroke: #000000; stroke-width: 0.8"/>
      </g>
     </g>
     <g id="text_11">
      <!-- Gender_Complete_Pooling -->
      <g transform="translate(43.359134 374.61194) scale(0.185616 -0.185616)">
       <defs>
        <path id="DejaVuSans-47" d="M 3809 666 
L 3809 1919 
L 2778 1919 
L 2778 2438 
L 4434 2438 
L 4434 434 
Q 4069 175 3628 42 
Q 3188 -91 2688 -91 
Q 1594 -91 976 548 
Q 359 1188 359 2328 
Q 359 3472 976 4111 
Q 1594 4750 2688 4750 
Q 3144 4750 3555 4637 
Q 3966 4525 4313 4306 
L 4313 3634 
Q 3963 3931 3569 4081 
Q 3175 4231 2741 4231 
Q 1884 4231 1454 3753 
Q 1025 3275 1025 2328 
Q 1025 1384 1454 906 
Q 1884 428 2741 428 
Q 3075 428 3337 486 
Q 3600 544 3809 666 
z
" transform="scale(0.015625)"/>
        <path id="DejaVuSans-72" d="M 2631 2963 
Q 2534 3019 2420 3045 
Q 2306 3072 2169 3072 
Q 1681 3072 1420 2755 
Q 1159 2438 1159 1844 
L 1159 0 
L 581 0 
L 581 3500 
L 1159 3500 
L 1159 2956 
Q 1341 3275 1631 3429 
Q 1922 3584 2338 3584 
Q 2397 3584 2469 3576 
Q 2541 3569 2628 3553 
L 2631 2963 
z
" transform="scale(0.015625)"/>
       </defs>
       <use xlink:href="#DejaVuSans-47"/>
       <use xlink:href="#DejaVuSans-65" x="77.490234"/>
       <use xlink:href="#DejaVuSans-6e" x="139.013672"/>
       <use xlink:href="#DejaVuSans-64" x="202.392578"/>
       <use xlink:href="#DejaVuSans-65" x="265.869141"/>
       <use xlink:href="#DejaVuSans-72" x="327.392578"/>
       <use xlink:href="#DejaVuSans-5f" x="368.505859"/>
       <use xlink:href="#DejaVuSans-43" x="418.505859"/>
       <use xlink:href="#DejaVuSans-6f" x="488.330078"/>
       <use xlink:href="#DejaVuSans-6d" x="549.511719"/>
       <use xlink:href="#DejaVuSans-70" x="646.923828"/>
       <use xlink:href="#DejaVuSans-6c" x="710.400391"/>
       <use xlink:href="#DejaVuSans-65" x="738.183594"/>
       <use xlink:href="#DejaVuSans-74" x="799.707031"/>
       <use xlink:href="#DejaVuSans-65" x="838.916016"/>
       <use xlink:href="#DejaVuSans-5f" x="900.439453"/>
       <use xlink:href="#DejaVuSans-50" x="950.439453"/>
       <use xlink:href="#DejaVuSans-6f" x="1007.117188"/>
       <use xlink:href="#DejaVuSans-6f" x="1068.298828"/>
       <use xlink:href="#DejaVuSans-6c" x="1129.480469"/>
       <use xlink:href="#DejaVuSans-69" x="1157.263672"/>
       <use xlink:href="#DejaVuSans-6e" x="1185.046875"/>
       <use xlink:href="#DejaVuSans-67" x="1248.425781"/>
      </g>
     </g>
    </g>
    <g id="ytick_8">
     <g id="line2d_11">
      <g>
       <use xlink:href="#mbd93de1f75" x="293.875108" y="423" style="stroke: #000000; stroke-width: 0.8"/>
      </g>
     </g>
     <g id="text_12">
      <!-- Gender_Multilevel -->
      <g transform="translate(119.681919 430.05194) scale(0.185616 -0.185616)">
       <use xlink:href="#DejaVuSans-47"/>
       <use xlink:href="#DejaVuSans-65" x="77.490234"/>
       <use xlink:href="#DejaVuSans-6e" x="139.013672"/>
       <use xlink:href="#DejaVuSans-64" x="202.392578"/>
       <use xlink:href="#DejaVuSans-65" x="265.869141"/>
       <use xlink:href="#DejaVuSans-72" x="327.392578"/>
       <use xlink:href="#DejaVuSans-5f" x="368.505859"/>
       <use xlink:href="#DejaVuSans-4d" x="418.505859"/>
       <use xlink:href="#DejaVuSans-75" x="504.785156"/>
       <use xlink:href="#DejaVuSans-6c" x="568.164062"/>
       <use xlink:href="#DejaVuSans-74" x="595.947266"/>
       <use xlink:href="#DejaVuSans-69" x="635.15625"/>
       <use xlink:href="#DejaVuSans-6c" x="662.939453"/>
       <use xlink:href="#DejaVuSans-65" x="690.722656"/>
       <use xlink:href="#DejaVuSans-76" x="752.246094"/>
       <use xlink:href="#DejaVuSans-65" x="811.425781"/>
       <use xlink:href="#DejaVuSans-6c" x="872.949219"/>
      </g>
     </g>
    </g>
    <g id="ytick_9">
     <g id="line2d_12">
      <g>
       <use xlink:href="#mbd93de1f75" x="293.875108" y="478.44" style="stroke: #000000; stroke-width: 0.8"/>
      </g>
     </g>
     <g id="text_13">
      <!-- Gender_No_Pooling -->
      <g transform="translate(107.573406 485.49194) scale(0.185616 -0.185616)">
       <use xlink:href="#DejaVuSans-47"/>
       <use xlink:href="#DejaVuSans-65" x="77.490234"/>
       <use xlink:href="#DejaVuSans-6e" x="139.013672"/>
       <use xlink:href="#DejaVuSans-64" x="202.392578"/>
       <use xlink:href="#DejaVuSans-65" x="265.869141"/>
       <use xlink:href="#DejaVuSans-72" x="327.392578"/>
       <use xlink:href="#DejaVuSans-5f" x="368.505859"/>
       <use xlink:href="#DejaVuSans-4e" x="418.505859"/>
       <use xlink:href="#DejaVuSans-6f" x="493.310547"/>
       <use xlink:href="#DejaVuSans-5f" x="554.492188"/>
       <use xlink:href="#DejaVuSans-50" x="604.492188"/>
       <use xlink:href="#DejaVuSans-6f" x="661.169922"/>
       <use xlink:href="#DejaVuSans-6f" x="722.351562"/>
       <use xlink:href="#DejaVuSans-6c" x="783.533203"/>
       <use xlink:href="#DejaVuSans-69" x="811.316406"/>
       <use xlink:href="#DejaVuSans-6e" x="839.099609"/>
       <use xlink:href="#DejaVuSans-67" x="902.478516"/>
      </g>
     </g>
    </g>
    <g id="text_14">
     <!-- ranked models -->
     <g transform="translate(22.3113 330.295927) rotate(-90) scale(0.198874 -0.198874)">
      <defs>
       <path id="DejaVuSans-61" d="M 2194 1759 
Q 1497 1759 1228 1600 
Q 959 1441 959 1056 
Q 959 750 1161 570 
Q 1363 391 1709 391 
Q 2188 391 2477 730 
Q 2766 1069 2766 1631 
L 2766 1759 
L 2194 1759 
z
M 3341 1997 
L 3341 0 
L 2766 0 
L 2766 531 
Q 2569 213 2275 61 
Q 1981 -91 1556 -91 
Q 1019 -91 701 211 
Q 384 513 384 1019 
Q 384 1609 779 1909 
Q 1175 2209 1959 2209 
L 2766 2209 
L 2766 2266 
Q 2766 2663 2505 2880 
Q 2244 3097 1772 3097 
Q 1472 3097 1187 3025 
Q 903 2953 641 2809 
L 641 3341 
Q 956 3463 1253 3523 
Q 1550 3584 1831 3584 
Q 2591 3584 2966 3190 
Q 3341 2797 3341 1997 
z
" transform="scale(0.015625)"/>
       <path id="DejaVuSans-6b" d="M 581 4863 
L 1159 4863 
L 1159 1991 
L 2875 3500 
L 3609 3500 
L 1753 1863 
L 3688 0 
L 2938 0 
L 1159 1709 
L 1159 0 
L 581 0 
L 581 4863 
z
" transform="scale(0.015625)"/>
      </defs>
      <use xlink:href="#DejaVuSans-72"/>
      <use xlink:href="#DejaVuSans-61" x="41.113281"/>
      <use xlink:href="#DejaVuSans-6e" x="102.392578"/>
      <use xlink:href="#DejaVuSans-6b" x="165.771484"/>
      <use xlink:href="#DejaVuSans-65" x="220.056641"/>
      <use xlink:href="#DejaVuSans-64" x="281.580078"/>
      <use xlink:href="#DejaVuSans-20" x="345.056641"/>
      <use xlink:href="#DejaVuSans-6d" x="376.84375"/>
      <use xlink:href="#DejaVuSans-6f" x="474.255859"/>
      <use xlink:href="#DejaVuSans-64" x="535.4375"/>
      <use xlink:href="#DejaVuSans-65" x="598.914062"/>
      <use xlink:href="#DejaVuSans-6c" x="660.4375"/>
      <use xlink:href="#DejaVuSans-73" x="688.220703"/>
     </g>
    </g>
   </g>
   <g id="LineCollection_1">
    <path d="M 541.254805 34.92 
L 583.438676 34.92 
" clip-path="url(#pbd0d73d565)" style="fill: none; stroke: #000000; stroke-width: 1.988738"/>
    <path d="M 571.043182 90.36 
L 613.456926 90.36 
" clip-path="url(#pbd0d73d565)" style="fill: none; stroke: #000000; stroke-width: 1.988738"/>
    <path d="M 495.330073 145.8 
L 543.014265 145.8 
" clip-path="url(#pbd0d73d565)" style="fill: none; stroke: #000000; stroke-width: 1.988738"/>
    <path d="M 329.148927 201.24 
L 367.23933 201.24 
" clip-path="url(#pbd0d73d565)" style="fill: none; stroke: #000000; stroke-width: 1.988738"/>
    <path d="M 361.816765 256.68 
L 400.618443 256.68 
" clip-path="url(#pbd0d73d565)" style="fill: none; stroke: #000000; stroke-width: 1.988738"/>
    <path d="M 338.306586 312.12 
L 377.901912 312.12 
" clip-path="url(#pbd0d73d565)" style="fill: none; stroke: #000000; stroke-width: 1.988738"/>
    <path d="M 309.09329 367.56 
L 346.684268 367.56 
" clip-path="url(#pbd0d73d565)" style="fill: none; stroke: #000000; stroke-width: 1.988738"/>
    <path d="M 346.850209 423 
L 385.20306 423 
" clip-path="url(#pbd0d73d565)" style="fill: none; stroke: #000000; stroke-width: 1.988738"/>
    <path d="M 339.725639 478.44 
L 378.292311 478.44 
" clip-path="url(#pbd0d73d565)" style="fill: none; stroke: #000000; stroke-width: 1.988738"/>
   </g>
   <g id="line2d_13">
    <path d="M 562.34674 506.16 
L 562.34674 7.2 
" clip-path="url(#pbd0d73d565)" style="fill: none; stroke-dasharray: 7.35833,3.181981; stroke-dashoffset: 0; stroke: #808080; stroke-width: 1.988738"/>
   </g>
   <g id="line2d_14">
    <defs>
     <path id="m459ac2ed5c" d="M 0 3 
C 0.795609 3 1.55874 2.683901 2.12132 2.12132 
C 2.683901 1.55874 3 0.795609 3 0 
C 3 -0.795609 2.683901 -1.55874 2.12132 -2.12132 
C 1.55874 -2.683901 0.795609 -3 0 -3 
C -0.795609 -3 -1.55874 -2.683901 -2.12132 -2.12132 
C -2.683901 -1.55874 -3 -0.795609 -3 0 
C -3 0.795609 -2.683901 1.55874 -2.12132 2.12132 
C -1.55874 2.683901 -0.795609 3 0 3 
z
" style="stroke: #000000; stroke-width: 1.988738"/>
    </defs>
    <g clip-path="url(#pbd0d73d565)">
     <use xlink:href="#m459ac2ed5c" x="562.34674" y="34.92" style="fill: #ffffff; stroke: #000000; stroke-width: 1.988738"/>
     <use xlink:href="#m459ac2ed5c" x="592.250054" y="90.36" style="fill: #ffffff; stroke: #000000; stroke-width: 1.988738"/>
     <use xlink:href="#m459ac2ed5c" x="519.172169" y="145.8" style="fill: #ffffff; stroke: #000000; stroke-width: 1.988738"/>
     <use xlink:href="#m459ac2ed5c" x="348.194128" y="201.24" style="fill: #ffffff; stroke: #000000; stroke-width: 1.988738"/>
     <use xlink:href="#m459ac2ed5c" x="381.217604" y="256.68" style="fill: #ffffff; stroke: #000000; stroke-width: 1.988738"/>
     <use xlink:href="#m459ac2ed5c" x="358.104249" y="312.12" style="fill: #ffffff; stroke: #000000; stroke-width: 1.988738"/>
     <use xlink:href="#m459ac2ed5c" x="327.888779" y="367.56" style="fill: #ffffff; stroke: #000000; stroke-width: 1.988738"/>
     <use xlink:href="#m459ac2ed5c" x="366.026634" y="423" style="fill: #ffffff; stroke: #000000; stroke-width: 1.988738"/>
     <use xlink:href="#m459ac2ed5c" x="359.008975" y="478.44" style="fill: #ffffff; stroke: #000000; stroke-width: 1.988738"/>
    </g>
   </g>
   <g id="patch_3">
    <path d="M 293.875108 506.16 
L 293.875108 7.2 
" style="fill: none; stroke: #000000; stroke-width: 0.8; stroke-linejoin: miter; stroke-linecap: square"/>
   </g>
   <g id="patch_4">
    <path d="M 628.675108 506.16 
L 628.675108 7.2 
" style="fill: none; stroke: #000000; stroke-width: 0.8; stroke-linejoin: miter; stroke-linecap: square"/>
   </g>
   <g id="patch_5">
    <path d="M 293.875108 506.16 
L 628.675108 506.16 
" style="fill: none; stroke: #000000; stroke-width: 0.8; stroke-linejoin: miter; stroke-linecap: square"/>
   </g>
   <g id="patch_6">
    <path d="M 293.875108 7.2 
L 628.675108 7.2 
" style="fill: none; stroke: #000000; stroke-width: 0.8; stroke-linejoin: miter; stroke-linecap: square"/>
   </g>
   <g id="legend_1">
    <g id="patch_7">
     <path d="M 645.944273 52.300845 
L 760.535968 52.300845 
Q 764.513443 52.300845 764.513443 48.323369 
L 764.513443 21.121165 
Q 764.513443 17.143689 760.535968 17.143689 
L 645.944273 17.143689 
Q 641.966797 17.143689 641.966797 21.121165 
L 641.966797 48.323369 
Q 641.966797 52.300845 645.944273 52.300845 
z
" style="fill: #ffffff; opacity: 0.8; stroke: #cccccc; stroke-linejoin: miter"/>
    </g>
    <g id="LineCollection_2">
     <path d="M 659.865438 33.249358 
L 679.752816 33.249358 
" style="fill: none; stroke: #000000; stroke-width: 1.988738"/>
    </g>
    <g id="line2d_15"/>
    <g id="line2d_16">
     <g>
      <use xlink:href="#m459ac2ed5c" x="669.809127" y="33.249358" style="fill: #ffffff; stroke: #000000; stroke-width: 1.988738"/>
     </g>
    </g>
    <g id="text_15">
     <!-- ELPD -->
     <g transform="translate(705.606407 40.20994) scale(0.198874 -0.198874)">
      <defs>
       <path id="DejaVuSans-4c" d="M 628 4666 
L 1259 4666 
L 1259 531 
L 3531 531 
L 3531 0 
L 628 0 
L 628 4666 
z
" transform="scale(0.015625)"/>
       <path id="DejaVuSans-44" d="M 1259 4147 
L 1259 519 
L 2022 519 
Q 2988 519 3436 956 
Q 3884 1394 3884 2338 
Q 3884 3275 3436 3711 
Q 2988 4147 2022 4147 
L 1259 4147 
z
M 628 4666 
L 1925 4666 
Q 3281 4666 3915 4102 
Q 4550 3538 4550 2338 
Q 4550 1131 3912 565 
Q 3275 0 1925 0 
L 628 0 
L 628 4666 
z
" transform="scale(0.015625)"/>
      </defs>
      <use xlink:href="#DejaVuSans-45"/>
      <use xlink:href="#DejaVuSans-4c" x="63.183594"/>
      <use xlink:href="#DejaVuSans-50" x="118.896484"/>
      <use xlink:href="#DejaVuSans-44" x="179.199219"/>
     </g>
    </g>
   </g>
  </g>
 </g>
 <defs>
  <clipPath id="pbd0d73d565">
   <rect x="293.875108" y="7.2" width="334.8" height="498.96"/>
  </clipPath>
 </defs>
</svg>
